<?xml version="1.0" encoding="utf-8"?>
<!-- Generator: Adobe Illustrator 18.1.1, SVG Export Plug-In . SVG Version: 6.00 Build 0)  -->
<!DOCTYPE svg PUBLIC "-//W3C//DTD SVG 1.1//EN" "http://www.w3.org/Graphics/SVG/1.1/DTD/svg11.dtd">
<g id="logo">
<svg version="1.1" id="Layer_1" xmlns="http://www.w3.org/2000/svg" xmlns:xlink="http://www.w3.org/1999/xlink" x="0px" y="0px"
	 viewBox="0 0 1247.5 886.9" enable-background="new 0 0 1247.5 886.9" xml:space="preserve">
<g>
	<path fill="#1A1A1A" d="M142.3,1.5H0v196.1h22.3l10.5,31.3L0,229.1v583.3h175.4l68.4-83l87.7,93.9l78.2-102l84.5,81.1h250.6V648.3
		l25.5,30.1v120l99.6,88.5h46.9v-84.5h247.9l82.9-118.6V506.2l-182.4-277.7v-86.7h-18.5V1.5H935.9l-0.1,0.1V1.5h-125V38
		c-9.8-9.5-21.4-17.4-34.7-23.4C755,4.9,730,0,702,0c-21,0-40.2,2.7-57.3,8.1c-18.2,5.7-33.9,14.4-46.9,25.9
		c-7.1,6.3-13.3,13.4-18.6,21.2c-12-17.6-28.5-31.3-49.1-40.7C508.9,4.9,483.9,0,455.8,0c-21,0-40.2,2.7-57.3,8.1
		c-9.6,3-18.5,6.9-26.7,11.5V1.5H253.3L253.2,2l-0.1-0.4H148.6"/>
	<path d="M299.2,457.1l-138,167.5h-130v-366h209l48,83l-50,61.5L299.2,457.1z M171.7,336.6h-53.5v61L171.7,336.6z"/>
	<path d="M886.7,699.1h-5.5l-81-72V509.6l-85.5-101v206h-86.5V304.1l-33.5-39.5v-6h102l103.5,123v-123h86.5V699.1z"/>
	<path d="M1217.5,516.6l-68.5,98H918v-356h130L1217.5,516.6z M1113.5,525.6l-109-165.5v165.5H1113.5z"/>
	<path d="M396.2,383.1l97.5-124.5h105v356h-92.5l-100-96l-77,100.5l-63.5-68l74.5-95.5l-38.5-37l57-71.5L396.2,383.1z M458.7,446.1
		l53.5,51v-118L458.7,446.1z"/>
	<g>
		<path fill="#FFFFFF" d="M299.2,457.1l-138,167.5h-130v-366h209l48,83l-50,61.5L299.2,457.1z M171.7,336.6h-53.5v61L171.7,336.6z
			 M218.2,418.1h-100v115L218.2,418.1z"/>
		<path fill="#FFFFFF" d="M886.7,699.1h-5.5l-81-72V509.6l-85.5-101v206h-86.5v-356h68.5l103.5,123v-123h86.5V699.1z"/>
		<path fill="#FFFFFF" d="M1217.5,516.6l-68.5,98H918v-356h130L1217.5,516.6z M1113.5,525.6l-109-165.5v165.5H1113.5z"/>
		<path fill="#FFFFFF" d="M396.2,383.1l97.5-124.5h105v356h-92.5l-100-96l-77,100.5l-63.5-68l74.5-95.5l-38.5-37l57-71.5
			L396.2,383.1z M458.7,446.1l53.5,51v-118L458.7,446.1z"/>
	</g>
	<g>
		<path fill="#F2F2F2" d="M299.2,457.1l-138,167.5h-130v-366h209l48,83l-50,61.5L299.2,457.1z M171.7,336.6h-53.5v61L171.7,336.6z
			 M218.2,418.1h-100v115L218.2,418.1z"/>
		<path fill="#F2F2F2" d="M886.7,699.1h-5.5l-81-72V509.6l-85.5-101v206h-86.5v-356h68.5l103.5,123v-123h86.5V699.1z"/>
		<path fill="#F2F2F2" d="M1217.5,516.6l-68.5,98H918v-356h130L1217.5,516.6z M1113.5,525.6l-109-165.5v165.5H1113.5z"/>
		<path fill="#F2F2F2" d="M396.2,383.1l97.5-124.5h105v356h-92.5l-100-96l-77,100.5l-63.5-68l74.5-95.5l-38.5-37l57-71.5
			L396.2,383.1z M458.7,446.1l53.5,51v-118L458.7,446.1z"/>
	</g>
	<g>
		<path fill="#FFFFFF" d="M202.2,146.6l-21,84.6h-65L70.3,91H28.8V31.5h91.6l27.4,86.3l23.8-86.3h59.8l27.8,86.3l18.5-86.3h64.3
			l-49.4,199.7h-65L202.2,146.6z"/>
		<path fill="#FFFFFF" d="M571.1,132.5c0,21.9-4.6,40.5-13.7,55.9c-9.1,15.4-22.3,27-39.6,34.7c-17.3,7.7-37.9,11.6-61.9,11.6
			c-24,0-44.6-3.9-61.8-11.7c-17.2-7.8-30.2-19.3-39.1-34.6c-8.9-15.3-13.3-33.9-13.3-55.9c0-16.7,2.5-31.4,7.6-44.1
			c5.1-12.7,12.5-23.4,22.3-32c9.8-8.7,21.8-15.2,36-19.7c14.2-4.5,30.3-6.7,48.3-6.7c23.9,0,44.5,3.9,61.8,11.8
			c17.3,7.9,30.6,19.5,39.7,34.9C566.5,92,571.1,110.6,571.1,132.5z M412.7,133c0,12.8,2.9,24,8.6,33.5c5.8,9.5,17.1,14.2,34.1,14.2
			c13.1,0,22.9-2.5,29.4-7.5c6.5-5,10.6-10.7,12.2-17.1c1.6-6.4,2.7-14.1,3.3-23.2c-0.6-12.8-3.6-24-9.3-33.5
			c-5.6-9.5-17.5-14.3-35.5-14.3C426.9,85.2,412.7,101.1,412.7,133z"/>
		<path fill="#FFFFFF" d="M817.2,132.5c0,21.9-4.6,40.5-13.7,55.9c-9.1,15.4-22.3,27-39.6,34.7c-17.3,7.7-37.9,11.6-61.9,11.6
			c-24,0-44.6-3.9-61.8-11.7c-17.2-7.8-30.2-19.3-39.1-34.6c-8.9-15.3-13.3-33.9-13.3-55.9c0-16.7,2.5-31.4,7.6-44.1
			c5.1-12.7,12.5-23.4,22.3-32c9.8-8.7,21.8-15.2,36-19.7C667.9,32.2,684,30,702,30c23.9,0,44.5,3.9,61.8,11.8
			c17.3,7.9,30.6,19.5,39.7,34.9C812.6,92,817.2,110.6,817.2,132.5z M658.8,133c0,12.8,2.9,24,8.6,33.5c5.8,9.5,17.1,14.2,34.1,14.2
			c13.1,0,22.9-2.5,29.4-7.5c6.5-5,10.6-10.7,12.2-17.1c1.6-6.4,2.7-14.1,3.3-23.2c-0.6-12.8-3.6-24-9.3-33.5
			c-5.6-9.5-17.5-14.3-35.5-14.3C673,85.2,658.8,101.1,658.8,133z"/>
		<path fill="#FFFFFF" d="M905.9,31.5v65l45.6-65h65l-74.4,99.9l33.2,40.4h59.8v59.5h-78.8l-50.3-59.5v59.5h-65V31.5H905.9z"/>
	</g>
	<path fill="#FFFFFF" d="M240.2,258.6h-209v160h87v-0.5h100l-0.4,0.5h37.9l-17.5-15.5l50-61.5L240.2,258.6z M118.2,397.6v-61h53.5
		L118.2,397.6z"/>
	<polygon fill="#FFFFFF" points="396.2,383.1 358.7,347.1 301.7,418.6 480.7,418.6 512.2,379.1 512.2,418.6 598.7,418.6 
		598.7,258.6 493.7,258.6 	"/>
	<polygon fill="#FFFFFF" points="800.2,381.6 696.7,258.6 628.2,258.6 628.2,418.6 714.7,418.6 714.7,408.6 723.2,418.6 
		886.7,418.6 886.7,258.6 800.2,258.6 	"/>
	<polygon fill="#FFFFFF" points="1048,258.6 918,258.6 918,418.6 1004.5,418.6 1004.5,360.1 1043,418.6 1153.1,418.6 	"/>
</g>
</g>
</svg>
