<?xml version="1.0" encoding="utf-8"?>
<!-- Generator: Adobe Illustrator 18.1.1, SVG Export Plug-In . SVG Version: 6.00 Build 0)  -->
<!DOCTYPE svg PUBLIC "-//W3C//DTD SVG 1.1//EN" "http://www.w3.org/Graphics/SVG/1.1/DTD/svg11.dtd">
<svg version="1.1" id="Layer_1" xmlns="http://www.w3.org/2000/svg" xmlns:xlink="http://www.w3.org/1999/xlink" x="0px" y="0px"
	 viewBox="0 0 1920 1080" enable-background="new 0 0 1920 1080" xml:space="preserve">
<g id="stage">
<symbol  id="New_Symbol" viewBox="-60.6 -28 122.8 63.6">
	<polygon fill="#AF7C5A" points="62.2,35.6 -37,35.6 -54.6,18 -54.6,-22 44.6,-22 62.2,-4.4 	"/>
	<polygon fill="#A87552" points="44.6,-22 -54.6,-22 -54.6,18 44.6,18 	"/>
	<g>
		<polygon fill="#414042" points="-34.6,-2 -54.6,-2 -60.6,-8 -60.6,-28 -40.6,-28 -34.6,-22 		"/>
		<polygon fill="#2D2B2C" points="-40.6,-8 -60.6,-8 -60.6,-28 -40.6,-28 		"/>
	</g>
	<g>
		<polygon fill="#414042" points="5,-2 -15,-2 -21,-8 -21,-28 -1,-28 5,-22 		"/>
		<polygon fill="#2D2B2C" points="-1,-8 -21,-8 -21,-28 -1,-28 		"/>
	</g>
	<g>
		<polygon fill="#414042" points="44.5,-2 24.5,-2 18.5,-8 18.5,-28 38.5,-28 44.5,-22 		"/>
		<polygon fill="#2D2B2C" points="38.5,-8 18.5,-8 18.5,-28 38.5,-28 		"/>
	</g>
</symbol>
<symbol  id="New_Symbol_1" viewBox="-161.8 -479.9 323.6 954.7">
	<path fill="#2D2B2C" d="M-32.6,472.8V364l0.6-1.5c3.8-9.4,5.9-19.5,6.2-29.7h52.4c0.2,10.2,2.3,20.2,6.2,29.7l0.6,1.5v108.8h0
		C11.5,475.5-10.6,475.5-32.6,472.8L-32.6,472.8z"/>
	<path fill="#AF2D2E" d="M111.4-254.1c-1.5,23,21.6,48.6,20.5,89.9c-1.6,58.7-36.3,82.1-39.6,79.7c-4.1-3.1,1.9-27.7-24.6-38.5
		c-20.7-8.4-41.1,14.7-41.1,14.7h-52.4c0,0-19.9-26.5-46.3-10.9c-28,16.5-8.3,50.5-12.1,52.9c-4,2.5-25.4-14.6-36.5-37.3
		c-6.4-13.1-11-34.6-11.6-57.1c-1.4-52.4,25.7-76.1,20.7-101.5c-8.3-42.6-50.4-51.7-50.3-115.1c0.2-106.7,165.2-97.5,165.2-97.5
		s156.2-9.7,158.4,99C163.3-303.3,114.6-304.2,111.4-254.1z"/>
	<g opacity="0.1">
		<path fill="#414042" d="M98.2-96.7c1.4,0.9,3.2,0.7,4.3-0.5c10.2-10.5,24-33.1,25-70.5c1-40-19.8-64.9-18.5-87.3
			c2.9-48.6,46.9-47.8,45.5-118c-1-52.9-37-76.9-72.6-87.7c-0.8-0.2-1.6,0.3-1.7,1.1l0,0c-0.1,0.7,0.3,1.4,0.9,1.6
			c32.7,11.9,63.3,36.2,64.3,84.9c1.3,70.2-42.7,69.4-45.5,118c-1.3,22.3,19.6,47.2,18.5,87.3c-0.9,32.7-11.5,54.1-21,66
			C96-100.1,96.4-97.8,98.2-96.7L98.2-96.7z"/>
		<path fill="#414042" d="M10-479.7c0,0-1.7-0.1-4.8-0.2c3.8-0.1,7-0.1,9.5,0C11.7-479.8,10-479.7,10-479.7z"/>
	</g>
	<path fill="#E6E7E8" d="M82.7-415.1c0-6.2-5-11.2-11.2-11.2s-11.2,5-11.2,11.2s5,11.2,11.2,11.2S82.7-408.9,82.7-415.1z"/>
	<path fill="#E6E7E8" d="M120-415.1c0-6.2-5-11.2-11.2-11.2c-6.2,0-11.2,5-11.2,11.2s5,11.2,11.2,11.2
		C115-403.9,120-408.9,120-415.1z"/>
	<g>
		<path fill="#E6E7E8" d="M69.3-441.6c0-3.9-3.2-7.1-7.1-7.1s-7.1,3.2-7.1,7.1s3.2,7.1,7.1,7.1S69.3-437.7,69.3-441.6z"/>
		<path fill="#2D2B2C" d="M66-441.6c0-2.1-1.7-3.8-3.8-3.8s-3.8,1.7-3.8,3.8c0,2.1,1.7,3.8,3.8,3.8S66-439.5,66-441.6z"/>
	</g>
	<path fill="#E6E7E8" d="M93.1-377.4c0-6.2-5-11.2-11.2-11.2s-11.2,5-11.2,11.2c0,6.2,5,11.2,11.2,11.2S93.1-371.2,93.1-377.4z"/>
	<path fill="#E6E7E8" d="M132.8-377.4c0-6.2-5-11.2-11.2-11.2s-11.2,5-11.2,11.2c0,6.2,5,11.2,11.2,11.2S132.8-371.2,132.8-377.4z"
		/>
	<path fill="#2D2B2C" d="M-25.8-117.4c0,0-9.6-17.4-24-26c-5.7-3.4-14-4.6-20.2-5.1c-3.8-0.3-6.1-4.4-4.4-7.8
		c5.9-11.7,15.6-36.5,14.2-69.4c-1.6-37.7-6.3-63.9-8.1-72.6c-0.4-2.2,0.5-4.4,2.3-5.6c2.9-1.9,8.2-4.2,16.2-4.1
		c13.6,0.2,34.5,17.2,70.6,16.5c36.2-0.7,49.7-14.1,61.9-15s3.9,0,10.2-0.2c3.3-0.1,7.9,1.2,11.7,2.5c3.2,1.1,4.6,4.8,3,7.7
		c-4.4,7.9-11.6,23.6-11.8,41.5c-0.2,25.7,18,46.3,18,78.9c0,18-3.9,30.8-7.5,38.8c-1.7,3.9-7.1,4.3-9.5,0.7c-4-6.1-11.3-13-24.3-13
		c-23.1,0-45.9,32.3-45.9,32.3H-25.8z"/>
	<path fill="#E6E7E8" d="M40.9-310.9h-80c-5.5,0-10-4.5-10-10v0c0-5.5,4.5-10,10-10h80c5.5,0,10,4.5,10,10v0
		C50.9-315.4,46.4-310.9,40.9-310.9z"/>
	<path fill="#BCBEC0" d="M-49.1-320.9L-49.1-320.9c0-5.5,4.5-10,10-10h80c5.5,0,10,4.5,10,10v0"/>
	<path fill="#939598" d="M-34.7-320.9c0-2.5-2-4.5-4.5-4.5s-4.5,2-4.5,4.5s2,4.5,4.5,4.5S-34.7-318.4-34.7-320.9z"/>
	<path fill="#939598" d="M45.4-320.9c0-2.5-2-4.5-4.5-4.5s-4.5,2-4.5,4.5s2,4.5,4.5,4.5S45.4-318.4,45.4-320.9z"/>
	<polygon fill="#2D2B2C" points="26.6,332.8 -25.8,332.8 -25.8,-117.4 26.6,-117.4 	"/>
	<g>
		<line fill="none" stroke="#E6E7E8" stroke-width="2" stroke-miterlimit="10" x1="22.3" y1="-320.2" x2="22.3" y2="333.7"/>
		<line fill="none" stroke="#E6E7E8" stroke-width="2" stroke-miterlimit="10" x1="13.5" y1="-320.2" x2="13.5" y2="333.7"/>
		<line fill="none" stroke="#E6E7E8" stroke-width="2" stroke-miterlimit="10" x1="4.8" y1="-320.2" x2="4.8" y2="333.7"/>
		<line fill="none" stroke="#E6E7E8" stroke-width="2" stroke-miterlimit="10" x1="-3.9" y1="-320.2" x2="-3.9" y2="333.7"/>
		<line fill="none" stroke="#E6E7E8" stroke-width="2" stroke-miterlimit="10" x1="-12.7" y1="-320.2" x2="-12.7" y2="333.7"/>
		<line fill="none" stroke="#E6E7E8" stroke-width="2" stroke-miterlimit="10" x1="-21.4" y1="-320.2" x2="-21.4" y2="333.7"/>
	</g>
	<path fill="#2D2B2C" d="M111.5-329.2c0-8.7-7.1-15.8-15.8-15.8s-15.8,7.1-15.8,15.8c0,8.7,7.1,15.8,15.8,15.8
		S111.5-320.4,111.5-329.2z"/>
	<path fill="#E6E7E8" d="M105.2-329.2c0-5.3-4.3-9.5-9.5-9.5s-9.5,4.3-9.5,9.5s4.3,9.5,9.5,9.5S105.2-323.9,105.2-329.2z"/>
	<g>
		<g>
			<path fill="#E6E7E8" d="M-12.8,448c0-3.1-2.5-5.6-5.6-5.6s-5.6,2.5-5.6,5.6c0,3.1,2.5,5.6,5.6,5.6S-12.8,451.1-12.8,448z"/>
			<path fill="#E6E7E8" d="M-12.8,415.7c0-3.1-2.5-5.6-5.6-5.6s-5.6,2.5-5.6,5.6c0,3.1,2.5,5.6,5.6,5.6S-12.8,418.9-12.8,415.7z"/>
			<path fill="#E6E7E8" d="M-12.8,383.5c0-3.1-2.5-5.6-5.6-5.6s-5.6,2.5-5.6,5.6c0,3.1,2.5,5.6,5.6,5.6S-12.8,386.6-12.8,383.5z"/>
		</g>
		<g>
			<path fill="#E6E7E8" d="M24.9,448c0-3.1-2.5-5.6-5.6-5.6s-5.6,2.5-5.6,5.6c0,3.1,2.5,5.6,5.6,5.6S24.9,451.1,24.9,448z"/>
			<path fill="#E6E7E8" d="M24.9,415.7c0-3.1-2.5-5.6-5.6-5.6s-5.6,2.5-5.6,5.6c0,3.1,2.5,5.6,5.6,5.6S24.9,418.9,24.9,415.7z"/>
			<path fill="#E6E7E8" d="M24.9,383.5c0-3.1-2.5-5.6-5.6-5.6s-5.6,2.5-5.6,5.6c0,3.1,2.5,5.6,5.6,5.6S24.9,386.6,24.9,383.5z"/>
		</g>
	</g>
	<g>
		<polygon fill="#E6E7E8" points="-51,439.3 -32.6,439.3 -32.6,448.4 -51,448.4 		"/>
		<polygon fill="#E6E7E8" points="-51,374.3 -32.6,374.3 -32.6,383.4 -51,383.4 		"/>
		<polygon fill="#E6E7E8" points="-51,406.8 -32.6,406.8 -32.6,415.9 -51,415.9 		"/>
	</g>
	<g>
		<polygon fill="#E6E7E8" points="33.4,439.3 51.9,439.3 51.9,448.4 33.4,448.4 		"/>
		<polygon fill="#E6E7E8" points="33.4,374.3 51.9,374.3 51.9,383.4 33.4,383.4 		"/>
		<polygon fill="#E6E7E8" points="33.4,406.8 51.9,406.8 51.9,415.9 33.4,415.9 		"/>
	</g>
</symbol>
<symbol  id="New_Symbol_2" viewBox="-96.8 -344.4 193.7 689.1">
	<g>
		<g>
			<polygon fill="#414042" points="-18.2,251.1 -26.7,253.2 -25.8,256.9 -17.3,254.8 			"/>
			<polygon fill="#E6E7E8" points="-26.9,251.9 -37,254.4 -35.4,260.8 -25.3,258.3 			"/>
		</g>
		<g>
			<polygon fill="#414042" points="-12.3,277.2 -20.8,279.3 -19.8,283 -11.3,280.9 			"/>
			<polygon fill="#E6E7E8" points="-21,277.9 -31.1,280.5 -29.5,286.9 -19.4,284.3 			"/>
		</g>
		<g>
			<polygon fill="#414042" points="-5,303.2 -13.5,305.4 -12.6,309.1 -4.1,306.9 			"/>
			<polygon fill="#E6E7E8" points="-13.7,304 -23.9,306.5 -22.2,312.9 -12.1,310.4 			"/>
		</g>
		<g>
			<polygon fill="#414042" points="2,329.3 -6.5,331.4 -5.5,335.1 3,333 			"/>
			<polygon fill="#E6E7E8" points="-6.7,330 -16.8,332.6 -15.2,339 -5.1,336.4 			"/>
		</g>
	</g>
	<path fill="#36B0CC" d="M-64.3-178.2c0-21.6-33.2-75.8-32.5-109c0.8-33.2,17.7-57.2,97-57.2c79.2,0,96.6,13.5,96.6,56.8
		s-29.4,78.9-29.4,101.3s18.9,35.9,18.9,64.9s-15.5,29-18.9,27.1c-3.5-1.9,0.8-13.5-10-33.2c-3.9-7.2-15.1-24-22.4-24
		c-6.8,0-12.2,8.2-13,9.5c-0.1,0.1-0.2,0.2-0.3,0.4l-34,38.5c-1.5,1.7-4.3,1-4.9-1.2c-1.7-6.6-5.6-17-13.2-17
		c-11.2,0-26.3,8.9-30.5,43.3c-0.7,5.9-1.2,10.7-1.4,14.6c-0.4,6.7-8.5,9.9-13.3,5.1c-6.7-6.6-13.2-16.8-13.2-31.3
		C-88.7-119.5-64.3-158.5-64.3-178.2z"/>
	<g opacity="0.1">
		<path fill="#6D6E71" d="M79-329.4c0.6-0.4,1.4-0.5,1.9,0c11.3,8.9,15,22.3,15,41.8c0,43.3-29.4,78.9-29.4,101.3
			c0,22.4,18.9,35.9,18.9,64.9c0,16.2-4.8,23.4-9.7,26.2c-1.7,1-3.5-1.2-2.2-2.7c3.5-3.9,6.4-11,6.4-23.5c0-29-18.9-42.5-18.9-64.9
			c0-22.4,29.4-58,29.4-101.3c0-17.8-2.8-30.6-11.6-39.4C78.2-327.7,78.2-328.8,79-329.4L79-329.4z"/>
	</g>
	<path fill="#2CA0BF" d="M53.9-227.9c0-28.9-23.4-52.4-52.4-52.4s-52.4,23.4-52.4,52.4s23.4,52.4,52.4,52.4S53.9-199,53.9-227.9z"/>
	<path fill="#2D2B2C" d="M12.2,214.9h-10h-10l-10.2-358.1c-0.1-2.6,2-4.8,4.7-4.8H2.1h12.6c2.6,0,4.7,2.2,4.7,4.8L12.2,214.9z"/>
	<path fill="#0D0E12" d="M12.4,214.9L12.4,214.9c0,7.4,6,13.4,13.4,13.4h0c2.3,0,4.4,1.4,5.3,3.5h0c0.9,2.1,1.1,4.4,0.6,6.6
		l-5.7,26.2c-2.8,12.9-2.7,26.2,0.1,39l2.4,11c1.5,6.5-0.1,13.3-4.3,18.6l-6.6,8.3c-3.4,4.3-9.9,4.1-13.1-0.3l-1-1.5
		c-1-1.4-1.7-3-2.2-4.7l-21.6-87.9c-0.8-3.1-0.1-6.4,1.8-9l5.8-7.9c3.3-4.5,4.9-9.9,4.8-15.4h0H12.4z"/>
	<path fill="#E6E7E8" d="M15.1,324.2c0-2.6-2.1-4.6-4.6-4.6s-4.6,2.1-4.6,4.6c0,2.6,2.1,4.6,4.6,4.6S15.1,326.7,15.1,324.2z"/>
	<path fill="#E6E7E8" d="M8.4,297.4c0-2.6-2.1-4.6-4.6-4.6s-4.6,2.1-4.6,4.6c0,2.6,2.1,4.6,4.6,4.6S8.4,299.9,8.4,297.4z"/>
	<path fill="#E6E7E8" d="M1.4,270.9c0-2.6-2.1-4.6-4.6-4.6s-4.6,2.1-4.6,4.6c0,2.6,2.1,4.6,4.6,4.6S1.4,273.5,1.4,270.9z"/>
	<path fill="#E6E7E8" d="M-5,244.8c0-2.6-2.1-4.6-4.6-4.6s-4.6,2.1-4.6,4.6c0,2.6,2.1,4.6,4.6,4.6S-5,247.4-5,244.8z"/>
	<polygon fill="#E6E7E8" points="23.7,-329.9 -23.7,-329.9 -23.7,-302.8 23.7,-302.8 	"/>
	<polygon fill="#BCBEC0" points="23.7,-329.9 -23.7,-329.9 -23.7,-321.4 23.7,-321.4 	"/>
	<g>
		<path fill="#A7A9AC" d="M-15-317.2L-15-317.2c-2,0-3.6,1.6-3.6,3.6v3.4c0,2,1.6,3.6,3.6,3.6h0c2,0,3.6-1.6,3.6-3.6v-3.4
			C-11.4-315.6-13-317.2-15-317.2z"/>
		<path fill="#A7A9AC" d="M15-317.2L15-317.2c-2,0-3.6,1.6-3.6,3.6v3.4c0,2,1.6,3.6,3.6,3.6h0c2,0,3.6-1.6,3.6-3.6v-3.4
			C18.6-315.6,17-317.2,15-317.2z"/>
		<path fill="#A7A9AC" d="M5-317.2L5-317.2c-2,0-3.6,1.6-3.6,3.6v3.4c0,2,1.6,3.6,3.6,3.6h0c2,0,3.6-1.6,3.6-3.6v-3.4
			C8.6-315.6,7-317.2,5-317.2z"/>
		<path fill="#A7A9AC" d="M-5-317.2L-5-317.2c-2,0-3.6,1.6-3.6,3.6v3.4c0,2,1.6,3.6,3.6,3.6h0c2,0,3.6-1.6,3.6-3.6v-3.4
			C-1.4-315.6-3-317.2-5-317.2z"/>
	</g>
	<polygon fill="#414042" points="28,-258.2 -26.7,-258.2 -26.7,-236.5 28,-236.5 	"/>
	<polygon fill="#2D2B2C" points="28,-258.2 -26.7,-258.2 -26.7,-252.6 28,-252.6 	"/>
	
		<polyline fill="none" stroke="#E6E7E8" stroke-width="2" stroke-linecap="round" stroke-linejoin="round" stroke-miterlimit="10" points="
		-15,-311.9 -5,214.9 -6,244.8 	"/>
	
		<polyline fill="none" stroke="#E6E7E8" stroke-width="2" stroke-linecap="round" stroke-linejoin="round" stroke-miterlimit="10" points="
		-5,-311.9 -0.4,214.9 0.4,270.9 	"/>
	
		<polyline fill="none" stroke="#E6E7E8" stroke-width="2" stroke-linecap="round" stroke-linejoin="round" stroke-miterlimit="10" points="
		5,-311.9 4.5,214.9 7.4,297.4 	"/>
	
		<polyline fill="none" stroke="#E6E7E8" stroke-width="2" stroke-linecap="round" stroke-linejoin="round" stroke-miterlimit="10" points="
		15,-311.9 8.4,214.9 14.1,324.2 	"/>
	<path fill="#E6E7E8" d="M71.5-250.3c0-3.2-2.6-5.9-5.9-5.9s-5.9,2.6-5.9,5.9s2.6,5.9,5.9,5.9S71.5-247,71.5-250.3z"/>
	<path fill="#E6E7E8" d="M79.8-284.9c0-2.9-2.3-5.2-5.2-5.2s-5.2,2.3-5.2,5.2c0,2.9,2.3,5.2,5.2,5.2S79.8-282,79.8-284.9z"/>
	<g>
		<path fill="#E6E7E8" d="M60.8-313.7c0-2.3-1.9-4.1-4.1-4.1s-4.1,1.9-4.1,4.1c0,2.3,1.9,4.1,4.1,4.1S60.8-311.5,60.8-313.7z"/>
		<path fill="#2D2B2C" d="M58.8-313.7c0-1.1-0.9-2.1-2.1-2.1s-2.1,0.9-2.1,2.1s0.9,2.1,2.1,2.1S58.8-312.6,58.8-313.7z"/>
	</g>
</symbol>
<symbol  id="New_Symbol_3" viewBox="-297.6 -224.9 595.1 449.8">
	<g>
		<polygon fill="#A87552" points="-163.2,91.7 -297.6,-42.7 -297.6,-99.2 -255.1,-141.7 -120.8,-7.3 -120.8,49.3 		"/>
		<polygon fill="#A87552" points="-163.2,91.7 -297.6,-42.7 -297.6,-99.2 -255.1,-141.7 -120.8,-7.3 -120.8,49.3 		"/>
		<polygon fill="#BA8761" points="-255.1,-85.1 -120.8,49.3 -163.2,91.7 -297.6,-42.7 		"/>
	</g>
	<g>
		<polygon fill="#A87552" points="214.5,-50.5 44.8,119.2 2.4,76.7 2.4,20.2 172.1,-149.5 214.5,-107.1 		"/>
		<polygon fill="#BA8761" points="172.1,-93 2.4,76.7 44.8,119.2 214.5,-50.5 		"/>
	</g>
	<path fill="#BA8761" d="M-45.7-224.9L-45.7-224.9c-71.8,0-130,58.2-130,130v319.8h260V-94.9C84.3-166.7,26.1-224.9-45.7-224.9z"/>
	<polygon fill="#36B0CC" points="84.3,200.1 -175.7,200.1 -175.7,161.6 84.3,161.6 	"/>
	<polygon fill="#2CA0BF" points="84.3,155.6 -175.7,155.6 -175.7,161.6 84.3,161.6 	"/>
	<g>
		<polygon fill="#FFFFFF" points="-89.8,103.1 -134.4,103.1 -134.4,147.7 -89.8,147.7 		"/>
		<polygon fill="#E6E7E8" points="-89.8,103.1 -134.4,103.1 -134.4,99.1 -89.8,99.1 		"/>
		<polygon fill="#414042" points="-97.4,110.6 -116.8,110.6 -116.8,130 -97.4,130 		"/>
		<polygon fill="#FFFFFF" points="-3.1,103.1 41.5,103.1 41.5,147.7 -3.1,147.7 		"/>
		<polygon fill="#E6E7E8" points="-3.1,103.1 41.5,103.1 41.5,99.1 -3.1,99.1 		"/>
		<polygon fill="#414042" points="4.4,110.6 23.8,110.6 23.8,130 4.4,130 		"/>
		<g>
			<polygon fill="#414042" points="17.3,62.3 -112.4,62.3 -112.4,70.3 17.3,70.3 			"/>
			<polygon fill="#FFFFFF" points="-96.4,70.3 -104.4,70.3 -104.4,78.3 -96.4,78.3 			"/>
			<polygon fill="#FFFFFF" points="9.3,70.3 1.3,70.3 1.3,78.3 9.3,78.3 			"/>
		</g>
		<polygon fill="#414042" points="-89.8,125.1 -134.4,125.1 -134.4,147.7 -89.8,147.7 		"/>
		<polygon fill="#414042" points="-3.1,125.1 41.5,125.1 41.5,147.7 -3.1,147.7 		"/>
	</g>
	
		<use xlink:href="#New_Symbol_2"  width="193.7" height="689.1" id="XMLID_8_" x="-96.8" y="-344.4" transform="matrix(0.1813 -0.7031 0.7031 0.1813 52.9741 -94.2616)" overflow="visible"/>
	<g>
		<polygon fill="#A87552" points="-255.1,-0.2 -297.6,-42.7 -297.6,-99.2 -191.5,-205.3 -149.1,-162.9 -149.1,-106.3 		"/>
		<polygon fill="#BA8761" points="-149.1,-106.3 -255.1,-0.2 -297.6,-42.7 -191.5,-148.7 		"/>
	</g>
</symbol>
<symbol  id="New_Symbol_4" viewBox="-153.5 -183.9 307 367.8">
	<path fill="#BA8761" d="M129.9-160.3h-260V53.9c0,71.8,58.2,130,130,130h0c71.8,0,130-58.2,130-130V-160.3z"/>
	
		<use xlink:href="#New_Symbol"  width="122.8" height="63.6" id="XMLID_7_" x="-60.6" y="-28" transform="matrix(1 0 0 1 -92.9332 -155.9254)" overflow="visible"/>
	
		<use xlink:href="#New_Symbol"  width="122.8" height="63.6" x="-60.6" y="-28" transform="matrix(-1 4.489659e-11 4.489659e-11 1 92.9331 -155.9254)" overflow="visible"/>
</symbol>
<symbol  id="New_Symbol_5" viewBox="-153.5 -183.9 307 367.8">
	<path fill="#BA8761" d="M129.9-160.3h-260V53.9c0,71.8,58.2,130,130,130h0c71.8,0,130-58.2,130-130V-160.3z"/>
	
		<use xlink:href="#New_Symbol"  width="122.8" height="63.6" id="XMLID_10_" x="-60.6" y="-28" transform="matrix(1 0 0 1 -92.9332 -155.9254)" overflow="visible"/>
	
		<use xlink:href="#New_Symbol"  width="122.8" height="63.6" x="-60.6" y="-28" transform="matrix(-1 4.489659e-11 4.489659e-11 1 92.9331 -155.9254)" overflow="visible"/>
</symbol>
<symbol  id="New_Symbol_6" viewBox="-288.9 -236.4 577.7 490.5">
	<g>
		<polygon fill="#A87552" points="-154.5,120.9 -288.9,-13.5 -288.9,-70 -246.4,-112.5 -112.1,21.9 -112.1,78.5 		"/>
		<polygon fill="#A87552" points="-154.5,120.9 -288.9,-13.5 -288.9,-70 -246.4,-112.5 -112.1,21.9 -112.1,78.5 		"/>
		<polygon fill="#BA8761" points="-246.4,-55.9 -112.1,78.5 -154.5,120.9 -288.9,-13.5 		"/>
	</g>
	<g>
		<polygon fill="#A87552" points="223.2,-21.3 53.5,148.4 11.1,105.9 11.1,49.4 180.8,-120.3 223.2,-77.9 		"/>
		<polygon fill="#BA8761" points="180.8,-63.8 11.1,105.9 53.5,148.4 223.2,-21.3 		"/>
	</g>
	<path fill="#BA8761" d="M-37-195.7L-37-195.7c-71.8,0-130,58.2-130,130v319.8H93V-65.7C93-137.5,34.8-195.7-37-195.7z"/>
	<g>
		<g>
			<polygon fill="#FFFFFF" points="-81.1,132.3 -125.7,132.3 -125.7,176.9 -81.1,176.9 			"/>
			<polygon fill="#E6E7E8" points="-81.1,132.3 -125.7,132.3 -125.7,128.3 -81.1,128.3 			"/>
			<polygon fill="#414042" points="-88.7,139.8 -108.1,139.8 -108.1,159.2 -88.7,159.2 			"/>
		</g>
		<g>
			<polygon fill="#FFFFFF" points="5.6,132.3 50.2,132.3 50.2,176.9 5.6,176.9 			"/>
			<polygon fill="#E6E7E8" points="5.6,132.3 50.2,132.3 50.2,128.3 5.6,128.3 			"/>
			<polygon fill="#414042" points="13.1,139.8 32.5,139.8 32.5,159.2 13.1,159.2 			"/>
		</g>
		<polygon fill="#AF2D2E" points="93,229.3 -167,229.3 -167,190.8 93,190.8 		"/>
		<polygon fill="#9B2A2A" points="93,184.8 -167,184.8 -167,190.8 93,190.8 		"/>
		<g>
			<polygon fill="#414042" points="-31.7,91.5 -103.7,91.5 -103.7,99.5 -31.7,99.5 			"/>
			<polygon fill="#FFFFFF" points="-87.7,99.5 -95.7,99.5 -95.7,107.5 -87.7,107.5 			"/>
			<polygon fill="#FFFFFF" points="-39.7,99.5 -47.7,99.5 -47.7,107.5 -39.7,107.5 			"/>
		</g>
	</g>
	
		<use xlink:href="#New_Symbol_1"  width="323.6" height="954.7" id="XMLID_11_" x="-161.8" y="-479.9" transform="matrix(0.1781 -0.545 0.545 0.1781 25.2335 -78.8299)" overflow="visible"/>
	<g>
		<polygon fill="#A87552" points="-246.4,29 -288.9,-13.5 -288.9,-70 -182.8,-176.1 -140.4,-133.7 -140.4,-77.1 		"/>
		<polygon fill="#BA8761" points="-140.4,-77.1 -246.4,29 -288.9,-13.5 -182.8,-119.5 		"/>
	</g>
</symbol>
<g>
	<rect y="0" fill="#0E2854" width="1920" height="1080"/>
	<rect x="614" y="103" fill="#FFFFFF" width="18.2" height="18.2"/>
	<rect x="62.3" y="420.1" fill="#FFFFFF" width="18.2" height="18.2"/>
	<rect x="496.7" y="420.1" fill="#FFFFFF" width="18.2" height="18.2"/>
	<rect x="1573.4" y="108.2" fill="#FFFFFF" width="18.2" height="18.2"/>
	<rect x="768.1" y="250.9" fill="#FFFFFF" width="10.3" height="10.3"/>
	<rect x="1455.3" y="289.7" fill="#FFFFFF" width="10.3" height="10.3"/>
	<rect x="381.7" y="444.6" fill="#FFFFFF" width="10.3" height="10.3"/>
	<rect x="272" y="34.5" fill="#FFFFFF" width="10.3" height="10.3"/>
	<rect x="1483" y="598" fill="#FFFFFF" width="18.2" height="18.2"/>
	<rect x="1777.3" y="533.4" fill="#FFFFFF" width="10.3" height="10.3"/>
	<rect x="1453.3" y="785.4" fill="#FFFFFF" width="10.3" height="10.3"/>
	<rect x="1311.4" y="370.1" fill="#FFFFFF" width="10.3" height="10.3"/>
	<rect x="264.5" y="623.8" fill="#FFFFFF" width="18.2" height="18.2"/>
	<rect x="233.5" y="548.5" fill="#FFFFFF" width="10.3" height="10.3"/>
	<rect x="471.7" y="665.8" fill="#FFFFFF" width="18.2" height="18.2"/>
	<rect x="555.5" y="792.2" fill="#FFFFFF" width="10.3" height="10.3"/>
	<rect x="89.7" y="628.9" fill="#FFFFFF" width="10.3" height="10.3"/>
	<rect x="1733.4" y="953.9" fill="#FFFFFF" width="10.3" height="10.3"/>
	<rect x="1265.1" y="1014.9" fill="#FFFFFF" width="18.2" height="18.2"/>
	<rect x="1589.6" y="1034.3" fill="#FFFFFF" width="10.3" height="10.3"/>
	<rect x="1068.5" y="892.9" fill="#FFFFFF" width="10.3" height="10.3"/>
	<rect x="951.6" y="1014.5" fill="#FFFFFF" width="18.2" height="18.2"/>
	<rect x="1053.5" y="799.3" fill="#FFFFFF" width="10.3" height="10.3"/>
	<rect x="778.8" y="961.4" fill="#FFFFFF" width="10.3" height="10.3"/>
	<rect x="47.7" y="954.7" fill="#FFFFFF" width="18.2" height="18.2"/>
	<rect x="1370.5" y="760.1" fill="#FFFFFF" width="18.2" height="18.2"/>
	<rect x="1186.2" y="917.4" fill="#FFFFFF" width="10.3" height="10.3"/>
	<rect x="1438.3" y="933.7" fill="#FFFFFF" width="18.2" height="18.2"/>
	<rect x="742.3" y="384.8" fill="#FFFFFF" width="10.3" height="10.3"/>
	<rect x="1054.6" y="558.4" fill="#FFFFFF" width="10.3" height="10.3"/>
	<rect x="647.2" y="641.2" fill="#FFFFFF" width="10.3" height="10.3"/>
	<rect x="632.2" y="547.7" fill="#FFFFFF" width="10.3" height="10.3"/>
	<rect x="633.3" y="306.7" fill="#FFFFFF" width="10.3" height="10.3"/>
	<rect x="910.7" y="638.8" fill="#FFFFFF" width="10.3" height="10.3"/>
	<rect x="1066.2" y="355.1" fill="#FFFFFF" width="18.2" height="18.2"/>
	<rect x="1854.4" y="650.7" fill="#FFFFFF" width="18.2" height="18.2"/>
	<rect x="1854.4" y="842.1" fill="#FFFFFF" width="18.2" height="18.2"/>
	<rect x="1855.1" y="120.9" fill="#FFFFFF" width="18.2" height="18.2"/>
	<rect x="1824.2" y="45.6" fill="#FFFFFF" width="10.3" height="10.3"/>
	<rect x="1825.4" y="517.2" fill="#FFFFFF" width="10.3" height="10.3"/>
	<rect x="1813.5" y="330.9" fill="#FFFFFF" width="10.3" height="10.3"/>
	<rect x="1755.7" y="296.4" fill="#FFFFFF" width="18.2" height="18.2"/>
	<rect x="1231.3" y="159.7" fill="#FFFFFF" width="10.3" height="10.3"/>
	<rect x="1173.5" y="125.2" fill="#FFFFFF" width="18.2" height="18.2"/>
	<rect x="214.9" y="1028.4" fill="#FFFFFF" width="18.2" height="18.2"/>
	<rect x="1829.8" y="936.5" fill="#FFFFFF" width="10.3" height="10.3"/>
	<rect x="1637.2" y="798.1" fill="#FFFFFF" width="10.3" height="10.3"/>
	<rect x="1769.1" y="1036.3" fill="#FFFFFF" width="10.3" height="10.3"/>
	<rect x="33.8" y="220.3" fill="#FFFFFF" width="18.2" height="18.2"/>
	<rect x="328" y="155.8" fill="#FFFFFF" width="10.3" height="10.3"/>
	<rect x="405.1" y="273.1" fill="#FFFFFF" width="18.2" height="18.2"/>
	<rect x="692" y="211.2" fill="#FFFFFF" width="10.3" height="10.3"/>
	<rect x="267.3" y="255.6" fill="#FFFFFF" width="10.3" height="10.3"/>
	<rect x="281.7" y="815.1" fill="#FFFFFF" width="18.2" height="18.2"/>
	<rect x="601.1" y="839.7" fill="#FFFFFF" width="10.3" height="10.3"/>
	<rect x="643.3" y="1037.5" fill="#FFFFFF" width="10.3" height="10.3"/>
	<rect x="916.3" y="794.6" fill="#FFFFFF" width="10.3" height="10.3"/>
	<rect x="721" y="1029.6" fill="#FFFFFF" width="10.3" height="10.3"/>
	<rect x="483.8" y="1018.8" fill="#FFFFFF" width="18.2" height="18.2"/>
	<rect x="452.9" y="943.5" fill="#FFFFFF" width="10.3" height="10.3"/>
	<rect x="1433.1" y="139.1" fill="#FFFFFF" width="18.2" height="18.2"/>
	<rect x="1402.2" y="63.8" fill="#FFFFFF" width="10.3" height="10.3"/>
	<rect x="309" y="1023.9" fill="#FFFFFF" width="10.3" height="10.3"/>
	<rect x="937.3" y="31.7" fill="#FFFFFF" width="18.2" height="18.2"/>
	<rect x="877.1" y="424.8" fill="#FFFFFF" width="18.2" height="18.2"/>
	<rect x="988.5" y="309.5" fill="#FFFFFF" width="10.3" height="10.3"/>
</g>
<polygon fill="#081933" points="1816.3,572.2 1816.3,688.7 1754.2,688.7 1754.2,619.2 1671.5,619.2 1671.5,710.5 1632,710.5 
	1632,831.2 391.2,831.2 391.2,690.8 257.5,690.8 257.5,737.6 214,737.6 214,567.1 103.7,567.1 103.7,680.7 0,680.7 0,831.2 0,918.2 
	0,1080 1920,1080 1920,831.2 1920,572.2 "/>
<rect x="288" y="983.9" fill="#6D6E71" width="1344" height="208.8"/>
<rect x="288" y="983.9" fill="#808285" width="1344" height="20"/>
<rect x="448" y="340.6" fill="#D1D3D4" width="1024" height="60"/>
<polygon fill="#939598" points="1632,663.9 288,663.9 288,983.9 642.3,983.9 642.3,1192.8 682.3,1192.8 682.3,983.9 905,983.9 
	905,1192.8 945,1192.8 945,983.9 975,983.9 975,1192.8 1015,1192.8 1015,983.9 1237.7,983.9 1237.7,1192.8 1277.7,1192.8 
	1277.7,983.9 1632,983.9 "/>
<g>
	<polygon fill="#414042" points="328,703.9 328,943.9 682.3,943.9 682.3,1193.7 905,1193.7 905,943.9 1015,943.9 1015,1193.7 
		1237.7,1193.7 1237.7,943.9 1592,943.9 1592,703.9 	"/>
	<rect x="328" y="703.9" fill="#808285" width="1264" height="20"/>
</g>
<g>
	<rect x="448" y="392.5" fill="#58595B" width="1024" height="331.4"/>
	<rect x="388" y="281.6" fill="#FFFFFF" width="1144" height="60"/>
	<polygon fill="#F1F2F2" points="388,340.6 388,780.6 448,780.6 448,400.6 1472,400.6 1472,780.6 1532,780.6 1532,340.6 	"/>
</g>
<g>
	<g>
		<path fill="#808285" d="M577.2,721.6c0-6.6-5.3-11.9-11.9-11.9s-11.9,5.3-11.9,11.9c0,1.6,0,22.6,0,25.9c0,6.6,5.3,11.9,11.9,11.9
			s11.9-5.3,11.9-11.9C577.2,744.2,577.2,723.2,577.2,721.6z"/>
		<circle fill="#FFFFFF" cx="565.3" cy="722.3" r="10.2"/>
	</g>
	<g>
		<path fill="#808285" d="M732.1,721.6c0-6.6-5.3-11.9-11.9-11.9s-11.9,5.3-11.9,11.9c0,1.6,0,22.6,0,25.9c0,6.6,5.3,11.9,11.9,11.9
			s11.9-5.3,11.9-11.9C732.1,744.2,732.1,723.2,732.1,721.6z"/>
		<circle fill="#FFFFFF" cx="720.2" cy="722.3" r="10.2"/>
	</g>
	<g>
		<path fill="#808285" d="M887,721.6c0-6.6-5.3-11.9-11.9-11.9s-11.9,5.3-11.9,11.9c0,1.6,0,22.6,0,25.9c0,6.6,5.3,11.9,11.9,11.9
			s11.9-5.3,11.9-11.9C887,744.2,887,723.2,887,721.6z"/>
		<circle fill="#FFFFFF" cx="875" cy="722.3" r="10.2"/>
	</g>
	<g>
		<path fill="#808285" d="M1041.9,721.6c0-6.6-5.3-11.9-11.9-11.9c-6.6,0-11.9,5.3-11.9,11.9c0,1.6,0,22.6,0,25.9
			c0,6.6,5.3,11.9,11.9,11.9c6.6,0,11.9-5.3,11.9-11.9C1041.9,744.2,1041.9,723.2,1041.9,721.6z"/>
		<circle fill="#FFFFFF" cx="1029.9" cy="722.3" r="10.2"/>
	</g>
	<g>
		<path fill="#808285" d="M1196.7,721.6c0-6.6-5.3-11.9-11.9-11.9c-6.6,0-11.9,5.3-11.9,11.9c0,1.6,0,22.6,0,25.9
			c0,6.6,5.3,11.9,11.9,11.9c6.6,0,11.9-5.3,11.9-11.9C1196.7,744.2,1196.7,723.2,1196.7,721.6z"/>
		<circle fill="#FFFFFF" cx="1184.8" cy="722.3" r="10.2"/>
	</g>
	<g>
		<path fill="#808285" d="M1351.6,721.6c0-6.6-5.3-11.9-11.9-11.9c-6.6,0-11.9,5.3-11.9,11.9c0,1.6,0,22.6,0,25.9
			c0,6.6,5.3,11.9,11.9,11.9c6.6,0,11.9-5.3,11.9-11.9C1351.6,744.2,1351.6,723.2,1351.6,721.6z"/>
		<circle fill="#FFFFFF" cx="1339.7" cy="722.3" r="10.2"/>
	</g>
</g>
<linearGradient id="SVGID_1_" gradientUnits="userSpaceOnUse" x1="952.8896" y1="693.3317" x2="952.8896" y2="422.9175">
	<stop  offset="0" style="stop-color:#FFFFFF"/>
	<stop  offset="1" style="stop-color:#FFFFFF;stop-opacity:0"/>
</linearGradient>
<path fill="url(#SVGID_1_)" d="M1339.8,400.6h-58.9h-37h-58.9h-58.9h-37h-58.9h-58.9h-37h-58.9h-58.9h-37h-58.9h-58.9h-37h-58.9
	h-95.9l60.4,266.6c3.8,16.6,18.5,28.3,35.5,28.3s31.7-11.8,35.5-28.3l41.9-185l41.9,185c3.8,16.6,18.5,28.3,35.5,28.3
	s31.7-11.8,35.5-28.3l41.9-185l41.9,185c3.8,16.6,18.5,28.3,35.5,28.3s31.7-11.8,35.5-28.3l41.9-185l41.9,185
	c3.8,16.6,18.5,28.3,35.5,28.3c17,0,31.7-11.8,35.5-28.3l41.9-185l41.9,185c3.8,16.6,18.5,28.3,35.5,28.3h0
	c17,0,31.7-11.8,35.5-28.3l41.9-185l41.9,185c3.8,16.6,18.5,28.3,35.5,28.3c17,0,31.7-11.8,35.5-28.3l60.4-266.6H1339.8z"/>
<g>
	<g>
		<path fill="#808285" d="M540.8,980.1c0-39-31.6-70.6-70.6-70.6c-39,0-70.6,31.6-70.6,70.6c0,11.7,0,77.3,0,89
			c0,39,31.6,70.6,70.6,70.6c39,0,70.6-31.6,70.6-70.6C540.8,1057.3,540.8,991.8,540.8,980.1z"/>
		<circle fill="#939598" cx="470.1" cy="980.1" r="70.6"/>
		<circle fill="#414042" cx="470.1" cy="980.1" r="56"/>
	</g>
	<g>
		<path fill="#808285" d="M1520.5,980.1c0-39-31.6-70.6-70.6-70.6s-70.6,31.6-70.6,70.6c0,11.7,0,77.3,0,89
			c0,39,31.6,70.6,70.6,70.6s70.6-31.6,70.6-70.6C1520.5,1057.3,1520.5,991.8,1520.5,980.1z"/>
		<circle fill="#939598" cx="1449.9" cy="980.1" r="70.6"/>
		<circle fill="#414042" cx="1449.9" cy="980.1" r="56"/>
	</g>
</g>
<g>
	<path fill="#F7941E" d="M558.5,884.5c0-34.5-20.5-64.2-50-77.6c6.9,7.4,11.6,17,12.8,27.6c-27.8-2.1-49-26-47.5-54
		c0.7-13.6,6.7-25.6,15.8-34.3c-32.1,12.5-55.5,42.8-57.5,79.4c-0.1,2.5-0.2,5-0.1,7.5c-6.3-3.3-11.5-8.7-14.3-15.8
		c-2.9-7.5-2.7-15.4,0.1-22.4c-14.2,14.6-19.4,36.7-11.4,56.9c1.7,4.3,3.9,8.3,6.5,11.9c-15.7-6.1-32.7-8.7-49.6-7.4
		c14.9,4.8,28,15.1,36.2,29.9c10.2,18.6,10.2,40.1,1.8,58l80.2,49.1c1.8-7.9,2.8-16.1,2.8-24.2C526.1,963.6,558.5,927.8,558.5,884.5
		z"/>
	<path fill="#FBB040" d="M535.3,876.7l-21.6-21.5c-19-19-19-49.9,0-69c11.3-11.3,26.7-15.9,41.4-13.8c-28-11.7-61.6-6.2-84.4,16.6
		c-10.6,10.6-17.4,23.4-20.6,37c-18-13-41.2-15.3-61.1-7c12-1.7,24.5,2,33.7,11.2c15.5,15.5,15.5,40.7,0,56.2l-17.6,17.5
		c-25.2,25.2-27.1,65.3-12.3,92.5c3.5,6.4,9.9,12.9,12.3,15.3c10,10,22.1,16.6,34.9,19.9c32.4,10.5,69.4,2.9,95.1-22.8
		C571.8,972.5,571.8,913.3,535.3,876.7z M457.8,921.6c6.3-6.6,11.2-14,14.2-22c23,27.6,28.1,47.6,25.2,62
		c-7.2,35-59.7,25.6-55.1-9.9C443.4,942.4,447.9,932.1,457.8,921.6z"/>
	<path fill="#FFFFFF" d="M457.8,921.6c6.3-6.6,11.2-14,14.2-22c23,27.6,28.1,47.6,25.2,62c-7.2,35-59.7,25.6-55.1-9.9
		C443.4,942.4,447.9,932.1,457.8,921.6z"/>
</g>
<g>
	<path fill="#F7941E" d="M1485.6,869.9l-19.1-19.1c-16.9-16.9-16.9-44.3,0-61.2c10-10,23.7-14.1,36.8-12.2
		c-24.9-10.4-54.7-5.5-74.9,14.8c-9.4,9.4-15.5,20.8-18.3,32.9c-15.9-11.5-36.6-13.6-54.2-6.2c10.6-1.5,21.8,1.8,30,10
		c13.8,13.8,13.8,36.1,0,49.9l-15.6,15.5c-22.4,22.4-25.8,56.5-10.3,82.5c-0.4-0.3-0.8-0.5-1.3-0.8c1.8,2.5,3.7,5,5.7,7.3
		c1.8,2.3,3.7,4.5,5.8,6.7c8.9,8.9,19.6,14.8,31,17.7c28.8,9.3,61.6,2.6,84.5-20.3C1518,954.9,1518,902.3,1485.6,869.9z"/>
	<path fill="#FBB040" d="M1525.4,880.5c8.1-14.8,21.3-25,36.2-29.9c-11.9-0.9-23.8,0.1-35.2,2.9c0.7-14.8-4.9-29.2-15.1-39.7
		c2.8,6.9,3,14.9,0.1,22.4c-3,7.6-8.7,13.3-15.6,16.5c-8.5-40.4-37.1-72.9-74.3-87.4c12.2,11.6,20.1,27.7,21.1,45.8
		c1.7,31.7-18.5,59.6-47.4,68.9c-0.4-2.7-0.6-5.6-0.6-8.4c0-16.3,6.4-31.1,16.7-42.1c-37.6,17.1-63.7,54.9-63.7,98.9
		c0,53.5,38.7,98,89.6,106.9c5,1.1,10.2,1.6,15.5,1.6c0.1,0,0.3,0,0.4,0c1,0,2,0,3.1,0l0,0c39.6-1.8,71.2-34.6,71.2-74.6
		c0-8.3-1.3-16.2-3.8-23.7l0.1,0c-0.1-0.2-0.2-0.5-0.3-0.7c-0.7-2.1-1.6-4.2-2.5-6.2C1515.4,915.3,1516.5,896.8,1525.4,880.5z"/>
	<path fill="#FFFFFF" d="M1478,959.6c4.6,35.4-47.9,44.9-55.1,9.9c-3-14.4,2.1-34.4,25.2-62c3.1,8,8,15.3,14.2,22
		C1472.3,940,1476.8,950.3,1478,959.6z"/>
</g>
<use xlink:href="#New_Symbol_4"  width="307" height="367.8" x="-153.5" y="-183.9" transform="matrix(0.6156 0 0 -0.6156 1129.1235 756.2828)" overflow="visible"/>
<use xlink:href="#New_Symbol_3"  width="595.1" height="449.8" x="-297.6" y="-224.9" transform="matrix(0.6156 0 0 -0.6156 1157.8556 659.428)" overflow="visible"/>
<use xlink:href="#New_Symbol_5"  width="307" height="367.8" x="-153.5" y="-183.9" transform="matrix(0.6156 0 0 -0.6156 787.8438 763.7639)" overflow="visible"/>
<use xlink:href="#New_Symbol_6"  width="577.7" height="490.5" x="-288.9" y="-236.4" transform="matrix(0.6156 0 0 -0.6156 811.2167 684.8807)" overflow="visible"/>
</g>
</svg>
