<?xml version="1.0" encoding="utf-8"?>
<!-- Generator: Adobe Illustrator 18.1.1, SVG Export Plug-In . SVG Version: 6.00 Build 0)  -->
<!DOCTYPE svg PUBLIC "-//W3C//DTD SVG 1.1//EN" "http://www.w3.org/Graphics/SVG/1.1/DTD/svg11.dtd">
<svg version="1.1" id="Layer_1" xmlns="http://www.w3.org/2000/svg" xmlns:xlink="http://www.w3.org/1999/xlink" x="0px" y="0px"
	 viewBox="0 0 370 310" enable-background="new 0 0 370 310" xml:space="preserve">
<g id="wookieTopBlue">
<symbol  id="New_Symbol" viewBox="-60.6 -28 122.8 63.6">
	<polygon fill="#AF7C5A" points="62.2,35.6 -37,35.6 -54.6,18 -54.6,-22 44.6,-22 62.2,-4.4 	"/>
	<polygon fill="#A87552" points="44.6,-22 -54.6,-22 -54.6,18 44.6,18 	"/>
	<g>
		<polygon fill="#414042" points="-34.6,-2 -54.6,-2 -60.6,-8 -60.6,-28 -40.6,-28 -34.6,-22 		"/>
		<polygon fill="#2D2B2C" points="-40.6,-8 -60.6,-8 -60.6,-28 -40.6,-28 		"/>
	</g>
	<g>
		<polygon fill="#414042" points="5,-2 -15,-2 -21,-8 -21,-28 -1,-28 5,-22 		"/>
		<polygon fill="#2D2B2C" points="-1,-8 -21,-8 -21,-28 -1,-28 		"/>
	</g>
	<g>
		<polygon fill="#414042" points="44.5,-2 24.5,-2 18.5,-8 18.5,-28 38.5,-28 44.5,-22 		"/>
		<polygon fill="#2D2B2C" points="38.5,-8 18.5,-8 18.5,-28 38.5,-28 		"/>
	</g>
</symbol>
<symbol  id="New_Symbol_1" viewBox="-161.8 -479.9 323.6 954.7">
	<path fill="#2D2B2C" d="M-32.6,472.8V364l0.6-1.5c3.8-9.4,5.9-19.5,6.2-29.7h52.4c0.2,10.2,2.3,20.2,6.2,29.7l0.6,1.5v108.8h0
		C11.5,475.5-10.6,475.5-32.6,472.8L-32.6,472.8z"/>
	<path fill="#AF2D2E" d="M111.4-254.1c-1.5,23,21.6,48.6,20.5,89.9c-1.6,58.7-36.3,82.1-39.6,79.7c-4.1-3.1,1.9-27.7-24.6-38.5
		c-20.7-8.4-41.1,14.7-41.1,14.7h-52.4c0,0-19.9-26.5-46.3-10.9c-28,16.5-8.3,50.5-12.1,52.9c-4,2.5-25.4-14.6-36.5-37.3
		c-6.4-13.1-11-34.6-11.6-57.1c-1.4-52.4,25.7-76.1,20.7-101.5c-8.3-42.6-50.4-51.7-50.3-115.1c0.2-106.7,165.2-97.5,165.2-97.5
		s156.2-9.7,158.4,99C163.3-303.3,114.6-304.2,111.4-254.1z"/>
	<g opacity="0.1">
		<path fill="#414042" d="M98.2-96.7c1.4,0.9,3.2,0.7,4.3-0.5c10.2-10.5,24-33.1,25-70.5c1-40-19.8-64.9-18.5-87.3
			c2.9-48.6,46.9-47.8,45.5-118c-1-52.9-37-76.9-72.6-87.7c-0.8-0.2-1.6,0.3-1.7,1.1l0,0c-0.1,0.7,0.3,1.4,0.9,1.6
			c32.7,11.9,63.3,36.2,64.3,84.9c1.3,70.2-42.7,69.4-45.5,118c-1.3,22.3,19.6,47.2,18.5,87.3c-0.9,32.7-11.5,54.1-21,66
			C96-100.1,96.4-97.8,98.2-96.7L98.2-96.7z"/>
		<path fill="#414042" d="M10-479.7c0,0-1.7-0.1-4.8-0.2c3.8-0.1,7-0.1,9.5,0C11.7-479.8,10-479.7,10-479.7z"/>
	</g>
	<path fill="#E6E7E8" d="M82.7-415.1c0-6.2-5-11.2-11.2-11.2s-11.2,5-11.2,11.2s5,11.2,11.2,11.2S82.7-408.9,82.7-415.1z"/>
	<path fill="#E6E7E8" d="M120-415.1c0-6.2-5-11.2-11.2-11.2c-6.2,0-11.2,5-11.2,11.2s5,11.2,11.2,11.2
		C115-403.9,120-408.9,120-415.1z"/>
	<g>
		<path fill="#E6E7E8" d="M69.3-441.6c0-3.9-3.2-7.1-7.1-7.1s-7.1,3.2-7.1,7.1s3.2,7.1,7.1,7.1S69.3-437.7,69.3-441.6z"/>
		<path fill="#2D2B2C" d="M66-441.6c0-2.1-1.7-3.8-3.8-3.8s-3.8,1.7-3.8,3.8c0,2.1,1.7,3.8,3.8,3.8S66-439.5,66-441.6z"/>
	</g>
	<path fill="#E6E7E8" d="M93.1-377.4c0-6.2-5-11.2-11.2-11.2s-11.2,5-11.2,11.2c0,6.2,5,11.2,11.2,11.2S93.1-371.2,93.1-377.4z"/>
	<path fill="#E6E7E8" d="M132.8-377.4c0-6.2-5-11.2-11.2-11.2s-11.2,5-11.2,11.2c0,6.2,5,11.2,11.2,11.2S132.8-371.2,132.8-377.4z"
		/>
	<path fill="#2D2B2C" d="M-25.8-117.4c0,0-9.6-17.4-24-26c-5.7-3.4-14-4.6-20.2-5.1c-3.8-0.3-6.1-4.4-4.4-7.8
		c5.9-11.7,15.6-36.5,14.2-69.4c-1.6-37.7-6.3-63.9-8.1-72.6c-0.4-2.2,0.5-4.4,2.3-5.6c2.9-1.9,8.2-4.2,16.2-4.1
		c13.6,0.2,34.5,17.2,70.6,16.5c36.2-0.7,49.7-14.1,61.9-15s3.9,0,10.2-0.2c3.3-0.1,7.9,1.2,11.7,2.5c3.2,1.1,4.6,4.8,3,7.7
		c-4.4,7.9-11.6,23.6-11.8,41.5c-0.2,25.7,18,46.3,18,78.9c0,18-3.9,30.8-7.5,38.8c-1.7,3.9-7.1,4.3-9.5,0.7c-4-6.1-11.3-13-24.3-13
		c-23.1,0-45.9,32.3-45.9,32.3H-25.8z"/>
	<path fill="#E6E7E8" d="M40.9-310.9h-80c-5.5,0-10-4.5-10-10v0c0-5.5,4.5-10,10-10h80c5.5,0,10,4.5,10,10v0
		C50.9-315.4,46.4-310.9,40.9-310.9z"/>
	<path fill="#BCBEC0" d="M-49.1-320.9L-49.1-320.9c0-5.5,4.5-10,10-10h80c5.5,0,10,4.5,10,10v0"/>
	<path fill="#939598" d="M-34.7-320.9c0-2.5-2-4.5-4.5-4.5s-4.5,2-4.5,4.5s2,4.5,4.5,4.5S-34.7-318.4-34.7-320.9z"/>
	<path fill="#939598" d="M45.4-320.9c0-2.5-2-4.5-4.5-4.5s-4.5,2-4.5,4.5s2,4.5,4.5,4.5S45.4-318.4,45.4-320.9z"/>
	<polygon fill="#2D2B2C" points="26.6,332.8 -25.8,332.8 -25.8,-117.4 26.6,-117.4 	"/>
	<g>
		<line fill="none" stroke="#E6E7E8" stroke-width="2" stroke-miterlimit="10" x1="22.3" y1="-320.2" x2="22.3" y2="333.7"/>
		<line fill="none" stroke="#E6E7E8" stroke-width="2" stroke-miterlimit="10" x1="13.5" y1="-320.2" x2="13.5" y2="333.7"/>
		<line fill="none" stroke="#E6E7E8" stroke-width="2" stroke-miterlimit="10" x1="4.8" y1="-320.2" x2="4.8" y2="333.7"/>
		<line fill="none" stroke="#E6E7E8" stroke-width="2" stroke-miterlimit="10" x1="-3.9" y1="-320.2" x2="-3.9" y2="333.7"/>
		<line fill="none" stroke="#E6E7E8" stroke-width="2" stroke-miterlimit="10" x1="-12.7" y1="-320.2" x2="-12.7" y2="333.7"/>
		<line fill="none" stroke="#E6E7E8" stroke-width="2" stroke-miterlimit="10" x1="-21.4" y1="-320.2" x2="-21.4" y2="333.7"/>
	</g>
	<path fill="#2D2B2C" d="M111.5-329.2c0-8.7-7.1-15.8-15.8-15.8s-15.8,7.1-15.8,15.8c0,8.7,7.1,15.8,15.8,15.8
		S111.5-320.4,111.5-329.2z"/>
	<path fill="#E6E7E8" d="M105.2-329.2c0-5.3-4.3-9.5-9.5-9.5s-9.5,4.3-9.5,9.5s4.3,9.5,9.5,9.5S105.2-323.9,105.2-329.2z"/>
	<g>
		<g>
			<path fill="#E6E7E8" d="M-12.8,448c0-3.1-2.5-5.6-5.6-5.6s-5.6,2.5-5.6,5.6c0,3.1,2.5,5.6,5.6,5.6S-12.8,451.1-12.8,448z"/>
			<path fill="#E6E7E8" d="M-12.8,415.7c0-3.1-2.5-5.6-5.6-5.6s-5.6,2.5-5.6,5.6c0,3.1,2.5,5.6,5.6,5.6S-12.8,418.9-12.8,415.7z"/>
			<path fill="#E6E7E8" d="M-12.8,383.5c0-3.1-2.5-5.6-5.6-5.6s-5.6,2.5-5.6,5.6c0,3.1,2.5,5.6,5.6,5.6S-12.8,386.6-12.8,383.5z"/>
		</g>
		<g>
			<path fill="#E6E7E8" d="M24.9,448c0-3.1-2.5-5.6-5.6-5.6s-5.6,2.5-5.6,5.6c0,3.1,2.5,5.6,5.6,5.6S24.9,451.1,24.9,448z"/>
			<path fill="#E6E7E8" d="M24.9,415.7c0-3.1-2.5-5.6-5.6-5.6s-5.6,2.5-5.6,5.6c0,3.1,2.5,5.6,5.6,5.6S24.9,418.9,24.9,415.7z"/>
			<path fill="#E6E7E8" d="M24.9,383.5c0-3.1-2.5-5.6-5.6-5.6s-5.6,2.5-5.6,5.6c0,3.1,2.5,5.6,5.6,5.6S24.9,386.6,24.9,383.5z"/>
		</g>
	</g>
	<g>
		<polygon fill="#E6E7E8" points="-51,439.3 -32.6,439.3 -32.6,448.4 -51,448.4 		"/>
		<polygon fill="#E6E7E8" points="-51,374.3 -32.6,374.3 -32.6,383.4 -51,383.4 		"/>
		<polygon fill="#E6E7E8" points="-51,406.8 -32.6,406.8 -32.6,415.9 -51,415.9 		"/>
	</g>
	<g>
		<polygon fill="#E6E7E8" points="33.4,439.3 51.9,439.3 51.9,448.4 33.4,448.4 		"/>
		<polygon fill="#E6E7E8" points="33.4,374.3 51.9,374.3 51.9,383.4 33.4,383.4 		"/>
		<polygon fill="#E6E7E8" points="33.4,406.8 51.9,406.8 51.9,415.9 33.4,415.9 		"/>
	</g>
</symbol>
<symbol  id="New_Symbol_2" viewBox="-96.8 -344.4 193.7 689.1">
	<g>
		<g>
			<polygon fill="#414042" points="-18.2,251.1 -26.7,253.2 -25.8,256.9 -17.3,254.8 			"/>
			<polygon fill="#E6E7E8" points="-26.9,251.9 -37,254.4 -35.4,260.8 -25.3,258.3 			"/>
		</g>
		<g>
			<polygon fill="#414042" points="-12.3,277.2 -20.8,279.3 -19.8,283 -11.3,280.9 			"/>
			<polygon fill="#E6E7E8" points="-21,277.9 -31.1,280.5 -29.5,286.9 -19.4,284.3 			"/>
		</g>
		<g>
			<polygon fill="#414042" points="-5,303.2 -13.5,305.4 -12.6,309.1 -4.1,306.9 			"/>
			<polygon fill="#E6E7E8" points="-13.7,304 -23.9,306.5 -22.2,312.9 -12.1,310.4 			"/>
		</g>
		<g>
			<polygon fill="#414042" points="2,329.3 -6.5,331.4 -5.5,335.1 3,333 			"/>
			<polygon fill="#E6E7E8" points="-6.7,330 -16.8,332.6 -15.2,339 -5.1,336.4 			"/>
		</g>
	</g>
	<path fill="#36B0CC" d="M-64.3-178.2c0-21.6-33.2-75.8-32.5-109c0.8-33.2,17.7-57.2,97-57.2c79.2,0,96.6,13.5,96.6,56.8
		s-29.4,78.9-29.4,101.3s18.9,35.9,18.9,64.9s-15.5,29-18.9,27.1c-3.5-1.9,0.8-13.5-10-33.2c-3.9-7.2-15.1-24-22.4-24
		c-6.8,0-12.2,8.2-13,9.5c-0.1,0.1-0.2,0.2-0.3,0.4l-34,38.5c-1.5,1.7-4.3,1-4.9-1.2c-1.7-6.6-5.6-17-13.2-17
		c-11.2,0-26.3,8.9-30.5,43.3c-0.7,5.9-1.2,10.7-1.4,14.6c-0.4,6.7-8.5,9.9-13.3,5.1c-6.7-6.6-13.2-16.8-13.2-31.3
		C-88.7-119.5-64.3-158.5-64.3-178.2z"/>
	<g opacity="0.1">
		<path fill="#6D6E71" d="M79-329.4c0.6-0.4,1.4-0.5,1.9,0c11.3,8.9,15,22.3,15,41.8c0,43.3-29.4,78.9-29.4,101.3
			c0,22.4,18.9,35.9,18.9,64.9c0,16.2-4.8,23.4-9.7,26.2c-1.7,1-3.5-1.2-2.2-2.7c3.5-3.9,6.4-11,6.4-23.5c0-29-18.9-42.5-18.9-64.9
			c0-22.4,29.4-58,29.4-101.3c0-17.8-2.8-30.6-11.6-39.4C78.2-327.7,78.2-328.8,79-329.4L79-329.4z"/>
	</g>
	<path fill="#2CA0BF" d="M53.9-227.9c0-28.9-23.4-52.4-52.4-52.4s-52.4,23.4-52.4,52.4s23.4,52.4,52.4,52.4S53.9-199,53.9-227.9z"/>
	<path fill="#2D2B2C" d="M12.2,214.9h-10h-10l-10.2-358.1c-0.1-2.6,2-4.8,4.7-4.8H2.1h12.6c2.6,0,4.7,2.2,4.7,4.8L12.2,214.9z"/>
	<path fill="#0D0E12" d="M12.4,214.9L12.4,214.9c0,7.4,6,13.4,13.4,13.4h0c2.3,0,4.4,1.4,5.3,3.5h0c0.9,2.1,1.1,4.4,0.6,6.6
		l-5.7,26.2c-2.8,12.9-2.7,26.2,0.1,39l2.4,11c1.5,6.5-0.1,13.3-4.3,18.6l-6.6,8.3c-3.4,4.3-9.9,4.1-13.1-0.3l-1-1.5
		c-1-1.4-1.7-3-2.2-4.7l-21.6-87.9c-0.8-3.1-0.1-6.4,1.8-9l5.8-7.9c3.3-4.5,4.9-9.9,4.8-15.4h0H12.4z"/>
	<path fill="#E6E7E8" d="M15.1,324.2c0-2.6-2.1-4.6-4.6-4.6s-4.6,2.1-4.6,4.6c0,2.6,2.1,4.6,4.6,4.6S15.1,326.7,15.1,324.2z"/>
	<path fill="#E6E7E8" d="M8.4,297.4c0-2.6-2.1-4.6-4.6-4.6s-4.6,2.1-4.6,4.6c0,2.6,2.1,4.6,4.6,4.6S8.4,299.9,8.4,297.4z"/>
	<path fill="#E6E7E8" d="M1.4,270.9c0-2.6-2.1-4.6-4.6-4.6s-4.6,2.1-4.6,4.6c0,2.6,2.1,4.6,4.6,4.6S1.4,273.5,1.4,270.9z"/>
	<path fill="#E6E7E8" d="M-5,244.8c0-2.6-2.1-4.6-4.6-4.6s-4.6,2.1-4.6,4.6c0,2.6,2.1,4.6,4.6,4.6S-5,247.4-5,244.8z"/>
	<polygon fill="#E6E7E8" points="23.7,-329.9 -23.7,-329.9 -23.7,-302.8 23.7,-302.8 	"/>
	<polygon fill="#BCBEC0" points="23.7,-329.9 -23.7,-329.9 -23.7,-321.4 23.7,-321.4 	"/>
	<g>
		<path fill="#A7A9AC" d="M-15-317.2L-15-317.2c-2,0-3.6,1.6-3.6,3.6v3.4c0,2,1.6,3.6,3.6,3.6h0c2,0,3.6-1.6,3.6-3.6v-3.4
			C-11.4-315.6-13-317.2-15-317.2z"/>
		<path fill="#A7A9AC" d="M15-317.2L15-317.2c-2,0-3.6,1.6-3.6,3.6v3.4c0,2,1.6,3.6,3.6,3.6h0c2,0,3.6-1.6,3.6-3.6v-3.4
			C18.6-315.6,17-317.2,15-317.2z"/>
		<path fill="#A7A9AC" d="M5-317.2L5-317.2c-2,0-3.6,1.6-3.6,3.6v3.4c0,2,1.6,3.6,3.6,3.6h0c2,0,3.6-1.6,3.6-3.6v-3.4
			C8.6-315.6,7-317.2,5-317.2z"/>
		<path fill="#A7A9AC" d="M-5-317.2L-5-317.2c-2,0-3.6,1.6-3.6,3.6v3.4c0,2,1.6,3.6,3.6,3.6h0c2,0,3.6-1.6,3.6-3.6v-3.4
			C-1.4-315.6-3-317.2-5-317.2z"/>
	</g>
	<polygon fill="#414042" points="28,-258.2 -26.7,-258.2 -26.7,-236.5 28,-236.5 	"/>
	<polygon fill="#2D2B2C" points="28,-258.2 -26.7,-258.2 -26.7,-252.6 28,-252.6 	"/>
	
		<polyline fill="none" stroke="#E6E7E8" stroke-width="2" stroke-linecap="round" stroke-linejoin="round" stroke-miterlimit="10" points="
		-15,-311.9 -5,214.9 -6,244.8 	"/>
	
		<polyline fill="none" stroke="#E6E7E8" stroke-width="2" stroke-linecap="round" stroke-linejoin="round" stroke-miterlimit="10" points="
		-5,-311.9 -0.4,214.9 0.4,270.9 	"/>
	
		<polyline fill="none" stroke="#E6E7E8" stroke-width="2" stroke-linecap="round" stroke-linejoin="round" stroke-miterlimit="10" points="
		5,-311.9 4.5,214.9 7.4,297.4 	"/>
	
		<polyline fill="none" stroke="#E6E7E8" stroke-width="2" stroke-linecap="round" stroke-linejoin="round" stroke-miterlimit="10" points="
		15,-311.9 8.4,214.9 14.1,324.2 	"/>
	<path fill="#E6E7E8" d="M71.5-250.3c0-3.2-2.6-5.9-5.9-5.9s-5.9,2.6-5.9,5.9s2.6,5.9,5.9,5.9S71.5-247,71.5-250.3z"/>
	<path fill="#E6E7E8" d="M79.8-284.9c0-2.9-2.3-5.2-5.2-5.2s-5.2,2.3-5.2,5.2c0,2.9,2.3,5.2,5.2,5.2S79.8-282,79.8-284.9z"/>
	<g>
		<path fill="#E6E7E8" d="M60.8-313.7c0-2.3-1.9-4.1-4.1-4.1s-4.1,1.9-4.1,4.1c0,2.3,1.9,4.1,4.1,4.1S60.8-311.5,60.8-313.7z"/>
		<path fill="#2D2B2C" d="M58.8-313.7c0-1.1-0.9-2.1-2.1-2.1s-2.1,0.9-2.1,2.1s0.9,2.1,2.1,2.1S58.8-312.6,58.8-313.7z"/>
	</g>
</symbol>
<symbol  id="New_Symbol_3" viewBox="-297.6 -224.9 595.1 449.8">
	<g>
		<polygon fill="#A87552" points="-163.2,91.7 -297.6,-42.7 -297.6,-99.2 -255.1,-141.7 -120.8,-7.3 -120.8,49.3 		"/>
		<polygon fill="#A87552" points="-163.2,91.7 -297.6,-42.7 -297.6,-99.2 -255.1,-141.7 -120.8,-7.3 -120.8,49.3 		"/>
		<polygon fill="#BA8761" points="-255.1,-85.1 -120.8,49.3 -163.2,91.7 -297.6,-42.7 		"/>
	</g>
	<g>
		<polygon fill="#A87552" points="214.5,-50.5 44.8,119.2 2.4,76.7 2.4,20.2 172.1,-149.5 214.5,-107.1 		"/>
		<polygon fill="#BA8761" points="172.1,-93 2.4,76.7 44.8,119.2 214.5,-50.5 		"/>
	</g>
	<path fill="#BA8761" d="M-45.7-224.9L-45.7-224.9c-71.8,0-130,58.2-130,130v319.8h260V-94.9C84.3-166.7,26.1-224.9-45.7-224.9z"/>
	<polygon fill="#36B0CC" points="84.3,200.1 -175.7,200.1 -175.7,161.6 84.3,161.6 	"/>
	<polygon fill="#2CA0BF" points="84.3,155.6 -175.7,155.6 -175.7,161.6 84.3,161.6 	"/>
	<g>
		<polygon fill="#FFFFFF" points="-89.8,103.1 -134.4,103.1 -134.4,147.7 -89.8,147.7 		"/>
		<polygon fill="#E6E7E8" points="-89.8,103.1 -134.4,103.1 -134.4,99.1 -89.8,99.1 		"/>
		<polygon fill="#414042" points="-97.4,110.6 -116.8,110.6 -116.8,130 -97.4,130 		"/>
		<polygon fill="#FFFFFF" points="-3.1,103.1 41.5,103.1 41.5,147.7 -3.1,147.7 		"/>
		<polygon fill="#E6E7E8" points="-3.1,103.1 41.5,103.1 41.5,99.1 -3.1,99.1 		"/>
		<polygon fill="#414042" points="4.4,110.6 23.8,110.6 23.8,130 4.4,130 		"/>
		<g>
			<polygon fill="#414042" points="17.3,62.3 -112.4,62.3 -112.4,70.3 17.3,70.3 			"/>
			<polygon fill="#FFFFFF" points="-96.4,70.3 -104.4,70.3 -104.4,78.3 -96.4,78.3 			"/>
			<polygon fill="#FFFFFF" points="9.3,70.3 1.3,70.3 1.3,78.3 9.3,78.3 			"/>
		</g>
		<polygon fill="#414042" points="-89.8,125.1 -134.4,125.1 -134.4,147.7 -89.8,147.7 		"/>
		<polygon fill="#414042" points="-3.1,125.1 41.5,125.1 41.5,147.7 -3.1,147.7 		"/>
	</g>
	
		<use xlink:href="#New_Symbol_2"  width="193.7" height="689.1" id="XMLID_8_" x="-96.8" y="-344.4" transform="matrix(0.1813 -0.7031 0.7031 0.1813 52.9741 -94.2616)" overflow="visible"/>
	<g>
		<polygon fill="#A87552" points="-255.1,-0.2 -297.6,-42.7 -297.6,-99.2 -191.5,-205.3 -149.1,-162.9 -149.1,-106.3 		"/>
		<polygon fill="#BA8761" points="-149.1,-106.3 -255.1,-0.2 -297.6,-42.7 -191.5,-148.7 		"/>
	</g>
</symbol>
<use xlink:href="#New_Symbol_3"  width="595.1" height="449.8" x="-297.6" y="-224.9" transform="matrix(0.6156 0 0 -0.6156 183.1691 138.4425)" overflow="visible"/>
</g>
</svg>
